/* XPM */
static char *result[] = {
/* columns rows colors chars-per-pixel */
"64 64 229 2 ",
"   c #161211",
".  c #1A1813",
"X  c #270C06",
"o  c #261C18",
"O  c #2E251C",
"+  c #2F2927",
"@  c #3C342B",
"#  c #3A3639",
"$  c #42160E",
"%  c #52190C",
"&  c #551C12",
"*  c #50260E",
"=  c #5C281B",
"-  c #62341B",
";  c #523930",
":  c #653D25",
">  c #5A4218",
",  c #6B531A",
"<  c #6B4932",
"1  c #494449",
"2  c #584C4B",
"3  c #595152",
"4  c #5E565B",
"5  c #62524E",
"6  c #655858",
"7  c #665B5C",
"8  c #6D605E",
"9  c #766757",
"0  c #645C60",
"q  c #726666",
"w  c #756D70",
"e  c #84511A",
"r  c #A67631",
"t  c #835646",
"y  c #915F4F",
"u  c #93644E",
"i  c #926151",
"p  c #916D50",
"a  c #966B54",
"s  c #A7774D",
"d  c #887769",
"f  c #947C6A",
"g  c #B68838",
"h  c #C39D3D",
"j  c #99845C",
"k  c #8F806E",
"l  c #95856C",
"z  c #978776",
"x  c #AB8D74",
"c  c #D2AD4C",
"v  c #DBB959",
"b  c #E7B753",
"n  c #CCB966",
"m  c #D5BE6B",
"M  c #C7BE7A",
"N  c #DDC259",
"B  c #EBC54B",
"V  c #F2C647",
"C  c #F2CC45",
"Z  c #F2D147",
"A  c #E9C656",
"S  c #F2C957",
"D  c #F2D75E",
"F  c #DDC464",
"G  c #D9C977",
"H  c #EBC969",
"J  c #F2C96A",
"K  c #F2CD6C",
"L  c #EACB76",
"P  c #EDD476",
"I  c #F2D47C",
"U  c #6C7582",
"Y  c #74ABD7",
"T  c #7BACD6",
"R  c #76ABD8",
"E  c #7BADDA",
"W  c #7FB0DB",
"Q  c #8A8A8A",
"!  c #978D88",
"~  c #9A918A",
"^  c #939393",
"/  c #979798",
"(  c #9C9C9C",
")  c #A8978A",
"_  c #B39D8B",
"`  c #B79C89",
"'  c #A49D97",
"]  c #BB9A93",
"[  c #BCA58C",
"{  c #BBA692",
"}  c #B3AD91",
"|  c #8E9BA9",
" . c #9BA3A9",
".. c #A4A4A4",
"X. c #A7A6A7",
"o. c #ABABAB",
"O. c #B4AEA8",
"+. c #ABB7A6",
"@. c #A8AEB5",
"#. c #A9B5B7",
"$. c #B3B3B3",
"%. c #B4B7BA",
"&. c #BBBBBC",
"*. c #C7A78B",
"=. c #D2AB8E",
"-. c #C8AD96",
";. c #C6B494",
":. c #DCB292",
">. c #D9BA99",
",. c #E2B694",
"<. c #E6B996",
"1. c #E9BA97",
"2. c #E6BC9B",
"3. c #E9BD9A",
"4. c #C9B6A7",
"5. c #D4BDA6",
"6. c #DCBEA2",
"7. c #CBBDB6",
"8. c #E1BEA3",
"9. c #B9C5AC",
"0. c #CFC68F",
"q. c #F3CB88",
"w. c #ECDA8C",
"e. c #E1C698",
"r. c #EBC19E",
"t. c #ECD091",
"y. c #CFCEA7",
"u. c #DBC5AA",
"i. c #C9C4B8",
"p. c #D6C6B7",
"a. c #DDC5B3",
"s. c #D9C9BC",
"d. c #CAD1B4",
"f. c #CAD3BC",
"g. c #E5C2A4",
"h. c #EDC5A3",
"j. c #EFC8A6",
"k. c #E4C4AA",
"l. c #EBC6A9",
"z. c #E4CAA9",
"x. c #EDCAAA",
"c. c #F0C9A7",
"v. c #F2CDAB",
"b. c #E9DBA6",
"n. c #F3D0AE",
"m. c #E2C7B2",
"M. c #E3CAB5",
"N. c #EACCB2",
"B. c #E8D5B7",
"V. c #ECD4BB",
"C. c #F5D4B2",
"Z. c #F8D7B4",
"A. c #F7D8B6",
"S. c #F8D8B5",
"D. c #F4D7B8",
"F. c #F6DABA",
"G. c #F8DDBD",
"H. c #F0E1BB",
"J. c #8BB1CB",
"K. c #98B8C9",
"L. c #81AED4",
"P. c #80AFDB",
"I. c #84B0D3",
"U. c #8DB5D4",
"Y. c #83B3DD",
"T. c #89B6DE",
"R. c #8DB9DD",
"E. c #95BAD7",
"W. c #9BBDDC",
"Q. c #AAB9C7",
"!. c #B6BDC4",
"~. c #A7BFD5",
"^. c #87B6E0",
"/. c #8AB7E0",
"(. c #8CBAE1",
"). c #93BEE4",
"_. c #98BFE2",
"`. c #9FC1DE",
"'. c #A5C0C5",
"]. c #B9C3C9",
"[. c #BAC3CC",
"{. c #ACC2D5",
"}. c #A3C1DC",
"|. c #ABC5DC",
" X c #B4C5D4",
".X c #BCC9D4",
"XX c #B4CADC",
"oX c #BCCCDB",
"OX c #97C0E5",
"+X c #9BC3E6",
"@X c #9DC5E8",
"#X c #A2C5E5",
"$X c #A5C7E7",
"%X c #ACC9E4",
"&X c #B4CDE3",
"*X c #B8CEE2",
"=X c #BAD1E3",
"-X c #C3C4C4",
";X c #CAC8C4",
":X c #C5C9CC",
">X c #CCCCCC",
",X c #D5CBC4",
"<X c #D6CDC6",
"1X c #C9D3C7",
"2X c #DAD1CB",
"3X c #C5CDD6",
"4X c #CCD3D4",
"5X c #C5D2DC",
"6X c #CAD5DB",
"7X c #D3D3D3",
"8X c #D5D9DC",
"9X c #DADADA",
"0X c #E9DBC7",
"qX c #F3DDC3",
"wX c #F9DFC1",
"eX c #EAE1CB",
"rX c #F6E1C4",
"tX c #F9E0C2",
"yX c #F6E2CA",
"uX c #F9E5CB",
"iX c #EAE3D6",
"pX c #F6E8D8",
"aX c #C7D6E3",
"sX c #D5DDE4",
"dX c #DBE1E7",
"fX c #E2E3E3",
"gX c #EAE9E8",
"hX c #F6F2EB",
"jX c #F9F2E9",
/* pixels */
"P.P.E P.E P.E E E P.E E T T T E R E T T W W T W T R E T T T R R R E E R R R R R R R R R R R Y Y R R R R R Y Y Y Y Y Y Y Y Y Y Y ",
"Y.E P.P.P.P.P.P.P.E P.E E E T E W W W W W W T E W E T R T T T R R E E R R E R R R R R R R R R R Y R R R R R Y Y Y Y Y Y Y Y Y Y ",
"P.Y.Y.E P.E E P.P.P.E E P.T P.P.W W W W W W W W W T T T E T T E E E R E R E R R R Y Y Y R R R R R R R R R R R R Y Y Y R Y Y Y Y ",
"Y.P.Y.Y.P.Y.P.P.P.E P.P.E P.E P.W W W W W W W E W W W T T T E E E E E R E R E E T Y Y Y R R Y Y R R R R R R R R Y Y R Y Y Y Y Y ",
"Y.P.Y.P.P.Y.E P.W W W W P.P.P.P.W W W W Y.Y.P.P.W W W W T T E E E E E E E R E E T Y T Y E R R R R R R R R R R R R R R R Y Y Y Y ",
"Y.Y.Y.E Y.P.Y.P.W W I.W P.P.Y.P.W W Y.OX=X6X4X4X1X1Xf.f.f.d.d.d.f.d.d.d.:X1Xf.1X1X.X X`.U.T.I.R T R R R R R R R E R R R R R Y Y ",
"P.P.Y.Y.P.E Y.P.Y.W Y.W W W Y.U.K.9.B.b.b.w.P D Z Z Z C C C C V B C C C C Z C C Z Z D P w.b.H.eX~.T E R R R R R R R E R R R R R ",
"Y.P.P.Y.Y.Y.Y.Y.Y.Y.Y.Y.Y.I.#.M w.P Z V V V V S S S J K K L P I I L L L F H H H A B B C Z Z Z D } J.L.T E E E E E E R R E R R R ",
"Y.W Y.W Y.W W W Y.Y.Y.Y.#.n A L B B A G 0.y.d.1X>X3X4X6X3XsXgXfX;XO.X.' ( O.<XiX7X:X;Xi.y.0.0.L m n } T E R R E R E R R E R R R ",
"Y.W Y.I.W W W W Y.Y.T.^.+.c H H.K.]..X|.+X`.T.T.Y.T.P.P.P.).8X( w q w w d ^ | Q.T.E T W E T L.yXt.b c L.R E R R E R E E R E R E ",
"OXT W Y.Y.Y.Y.OXY.Y.T./.U.n B D y.`.^.W Y.T.Y.Y.Y.L.P.P.P.J.2 ; 2 5 6 6 5 7  .E E E R E R U.d.P S b { E E E R R E R E R E E R E ",
"W W W W W OXY.W Y.Y.T././.E.+.M N S A G 9.'.K.U.U.Y.U.P.P.U + 1 1 5 7 7 q 7 w E.U.#.9.G D C C B F +.P.E R E E E E R E E R R E R ",
"W W I.Y.OXW W W Y.Y.T./././.T.R.K.O.;.G F b S S S J I q.*.+ # # # ; 1 6 8 q 0 { v B A v N G 0.#.T W T T E E E E E E E E E E E E ",
"OXT W OXY.Y.Y.OX/.T.T.T././.T.T.T.T.U.R.E.7.q.J J L q.c.8.6.n.n.l.-.6 3 8 8 6 j } 9.K.I.L.L.Y.I.T W E E E E E E E E E E E E E E ",
"W I.Y.Y.Y.T.Y.T.T.^.T.T.T.T.T.T.T.T./.(.#X7XwXv.c.v.v.n.n.n.n.n.x.v.v.9 7 8 7 d Q.P.P.Y.E E P.E Y.E E E E E E E E E E E E E E E ",
"Y.OXY.Y.T.Y.T.T.T.T.T.Y.Y.Y.T.T.T./._.oX2XV.n.n.n.n.n.v.n.n.n.n.C.x.C.-.4 q 7 d 4.7.!.~.U.Y.E Y.E W W E E E E E E E E E E E E E ",
"Y.OXY.Y.Y.Y.OXY.P.T.T.T.T.T.T.T./.|.8X0X8.v.n.n.n.n.n.n.C.n.n.n.n.C.Z.-.4 q 4 f 8.c.8.M.:X~.^.P.Y.W W E E E E E E E E W E E E W ",
"OXY.OXY.OXY.OXI.T.T.P.T.T.T./.).|.,X8.v.C.v.n.n.n.n.n.n.C.n.n.C.C.C.l.] 4 q 3 -.n.v.v.8.8.,X~.).Y.I.Y.E W E W E W W E W W E W W ",
"Y.Y.OXOXOXY.Y.Y.T.P.T.P.T.T./.~.s.8.n.v.v.C.n.C.n.C.C.C.C.C.C.n.C.n.8.z 4 7 d N.n.n.v.j.c.j.M.!.U.I.W E E W W E E E W E W W W W ",
"Y.OXY.Y.Y.Y.OXY.T.T.T.T.T.T.~.,X8.v.n.n.n.v.n.n.n.C.C.C.C.C.C.C.C.n.N.f q f n.n.n.n.n.n.c.c.c.M. XY.Y.Y.W E W E W W W E W W W W ",
"Y.OXOXY.OXOXY.Y.T.T.T.T.^.|.>Xx.8.v.n.v.n.n.C.n.C.C.C.C.Z.C.Z.C.D.C.Z.C.n.C.n.C.n.n.C.n.v.v.j.v.s.{.U.W W W W ^.W W W W W W W W ",
"^.^.Y.OXY.Y.Y.OXT.^.T.T.).,X8.3.n.v.C.n.C.C.C.C.D.C.C.Z.Z.C.Z.Z.C.C.Z.D.C.C.C.C.C.n.n.C.n.n.v.3.l.;X}.Y.^.W W W W W ^.W W W ^.W ",
"OX^.OXY.Y.OXOXY.T.T././.~.8.3.v.v.n.n.n.C.C.C.C.Z.C.D.Z.D.F.F.Z.F.F.Z.Z.Z.C.Z.C.C.n.C.n.C.v.v.v.h.z.;XR.W E W W W W W W W W W W ",
"Y.OX^.OXY.Y.OXY./././._.s.3.j.j.v.n.C.C.n.C.C.C.D.Z.Z.F.Z.F.Z.G.F.F.D.D.F.F.C.Z.F.Z.Z.C.n.C.C.v.j.h.a.{.^.^.^.W W ^.W ^.W ^.W W ",
"^.^.OX^.(.^.OX^.^.Y.OX'.8.j.v.v.n.n.C.C.C.C.Z.Z.F.F.F.F.G.F.G.F.G.G.G.G.G.Z.Z.Z.C.Z.C.Z.n.C.n.n.c.h.8.;X/.W ^.P.^.W ^.W ^.W ^.W ",
"OX^.OX^.(.(.^.^.OXY.T.d.3.h.j.v.C.C.C.n.C.C.Z.F.F.F.F.wXF.G.G.G.G.F.G.G.G.G.G.F.Z.Z.F.C.C.C.C.n.v.c.h.m.W.^.W ^.W ^.W W W W W W ",
"^.OX^.^.^.^.OX^././.`.u.3.c.v.n.C.C.n.C.C.F.Z.F.G.F.wXF.G.wXG.wXwXwXG.G.G.G.G.F.F.Z.Z.C.C.C.C.n.n.c.h.8.[./.^.P.^.W ^.^.^.W ^.W ",
"^.^.^.OXOX^.^.(./.R.].u.8.h.v.n.C.C.C.C.C.F.F.F.wXF.wXwXwXG.wXwXG.wXwXG.G.G.G.G.F.F.F.D.C.C.C.n.v.c.c.8.i.).^.P.W ^.^.W ^.^.W ^.",
"OX^.(.(.(.(.^.^./.R.;X2.h.j.v.n.n.C.C.Z.F.F.wXwXwXG.G.wXwXwXwXwXwXwXwXwXG.wXG.G.qXF.F.Z.Z.C.C.n.n.v.j.3.p._.^.^.^.W ^.W W W ^.W ",
"OX^.(.(.OX^.(.(././.7.3.h.j.v.n.C.C.C.Z.F.F.F.D.Z.G.wXwXwXwXwXwXwXwXwXwXwXG.G.F.F.F.Z.Z.Z.C.C.C.n.v.c.h.5.~./.Y.^.^.^.^.^.^.W ^.",
"^.^.^.(.^.(.(.(.(./.5.3.h.c.v.n.n.C.Z.F.C.C.C.C.C.F.wXwXwXwXwXwXwXwXwXwXwXF.Z.C.C.C.C.C.Z.Z.C.C.n.v.c.3.8. X^.^.^.^.^.^.^.W ^.^.",
"^.OXOX^.(.(.(.(.(.W.5.8.h.j.n.C.C.Z.F.F.Z.F.C.D.C.F.wXwXwXwXwXwXwXwXwXwXwXF.F.C.C.C.C.C.D.Z.C.C.n.v.v.j.8.3X(.^.^.^.^.^.^.^.^.^.",
").(.(.(.(.(.).@X|.[.8.3.3.v.v.C.Z.F.G.F.Z.F.G.G.G.G.tXtXtXtXtXtXwXwXtXtXwXwXF.F.A.A.A.S.Z.Z.n.C.n.v.x.r.h.s.|.W.(./.^.^./.Y.T.Y.",
").(.(.(.(.(.}.3X>X0X3.3.v.v.v.C.F.D.D.D.B.u.u.y.V.qXrXtXtXtXtXtXwXwXtXwXwXwXD.z.u.u.z.B.A.Z.A.n.n.n.c.h.3.z.<X<X{.(./././.T.^.^.",
"(.(.(.).).(.<X8.v.8.3.3.3.C.C.Z.D.A.D.B.;.[ x k [ V.rXrXtXtXtXG.wXtXtXtXF.0X5.;.x d z y.V.A.C.C.n.n.c.h.r.r.j.x.s.W././.T.^.T.T.",
").(.).(.(.(.2X8.3.1.3.3.3.v.v.Z.n.0XpX;.j } k @ 2 4.qXG.tXG.tXwXtXwXtXwXF.5.l ;.z @ @ x 0X0XD.n.n.n.c.h.r.3.h.h.k.W././.OXT.T.T.",
").(.(.).(.(.8.v.v.3.3.3.v.v.C.n.C.pXiXk ; l 9 . $ x 0XF.wXwXtXtXtXtXtXG.qX' ; z 9 . . , p.pXqXn.n.n.c.h.r.r.c.c.e.`.T.T.Y.^.T.OX",
"(.).(.).(.).8.8.8.3.3.3.3.v.C.v.F.hX9X8 . # O o * r 0XpXwXtXtXtXtXG.tXG.pX! o ; O   * , >.hXiXD.n.v.c.h.r.r.h.h.g.`.T.Y.T.T.T.Y.",
").(.).(.).).8.3.n.3.3.3.3.C.v.n.uXjXiX9   o X O e g pXjXwXtXtXtXtXtXwXtXjX) o o   . - r u.hXpXD.n.v.c.r.r.r.j.h.g.`.^.OX^.Y.OXW ",
").).).)._.+X2Xv.3.3.3.v.3.v.n.C.uXjXgX) = : : , h M hXjXtXtXwXtXtXtXwXtXjX;X; > > , r c 0XgXiXD.n.c.h.r.r.r.j.h.g.`.T.Y.OXOXW OX",
").).).).).).5X8.j.3.3.3.c.c.v.n.A.uXpX2Xx s g h m iXhXpXtXtXtXtXtXtXtXuXjXjX] s r h v u.pXpXqXD.v.j.h.h.3.h.j.r.u.+X(.(.(.R.(.(.",
").).).).).).3Xm.3.j.8.1.3.j.v.C.n.A.rXuXV.>.e.e.yXpXjXtXwXtXtXtXtXG.G.G.uXpXuXa.e.e.B.pXyXF.D.C.v.j.h.3.3.h.h.r.s._.(.(.(.(.(.(.",
").).).@X).).$XM.3.j.1.1.3.j.v.n.C.C.D.F.tXrXrXyXuXtXtXtXwXG.wXuXuXG.G.G.G.tXtXuXqXqXrXG.F.Z.C.C.v.j.h.3.<.h.h.h.3X).(.(.^.T.(.(.",
").).).)._.).).<Xl.8.1.1.3.j.j.n.n.D.C.Z.F.G.tXqXwXtXG.tXG.Z.D.uXG.n.Z.G.tXtXG.G.G.G.F.F.Z.C.C.C.v.j.r.<.<.3.h.a.+XR.(.(.OXOX(.(.",
").)._.).)._.@X=X,X8.8.,.3.r.h.v.v.C.C.Z.F.G.G.G.G.tXtXtXG.r.3.c.h.r.v.G.G.tXG.tXG.G.F.F.Z.C.C.v.j.h.3.,.>.g.a..XOXY.OXOXOXY.OXOX",
"@X)._._.@X&XaX=X&X:X,X6.<.3.h.v.v.C.C.D.F.F.G.G.G.tXG.tXZ.8.1.1.,.<.n.G.tXG.tXG.G.G.G.D.Z.C.C.v.j.3.<.:.7.-XXXR.OXOXY.W ^.OXOXY.",
").$X$X&XaXdXdXgXsX3X3X4.:.1.3.l.v.C.C.C.Z.F.F.G.qXG.wXwXG.Z.c.h.h.x.Z.G.G.G.G.G.G.F.F.Z.C.C.v.v.h.2.:.-.{.`.OXOXOXY.OXOXW OXOXOX",
"@XdXdXdXfXfXfXgXsX9.&...*.,.3.h.v.v.v.C.C.Z.Z.G.F.x.k.z.l.g.8.8.8.g.z.z.k.z.B.G.G.Z.Z.Z.C.v.v.j.3.:.*.' Q.9.'.`.OXOXOXOXOXOXOX^.",
"aXdXfXfXfXfX9X9X;XX.X...] *.,.8.j.v.v.C.n.C.Z.D.C.[ p p u y y y y y y a 9 s 8.F.F.Z.C.C.C.n.j.h.1.*._ ( ....&.3XXX5XaXaXaX*X`.).",
"5X7X9X7X>X>X&.%.&.$.$.-XX.] =.1.h.l.v.v.n.C.C.Z.D.*.2 $ % & & & & % % % ; f k.Z.F.F.C.n.n.j.h.2.=._ ' !.%.$.&.&.!.-X>X7X9X4X.X).",
"7X>X&.!.o.o.$.&.>X>X&.&.o.~ _ =.<.h.h.v.v.C.C.C.S.n.=.y < - = = = - < t x x.Z.F.C.Z.C.n.v.h.3.,.] ^ ( &.&.;X>X&.$.@.o.$.&.:X.X).",
"dXfX-XO.$.&.-X>X>X-X$.o.X.o.X.] :.1.h.j.v.v.v.Z.n.S.S.g.*.x a i i s x 6.C.F.Z.C.Z.n.n.j.h.3.,.[ ' X.X.X.$.!.>X4X>X7.$.o.&.3X#X).",
"gXdX9X>X7X7X7X-X&.&.;X-X$.&.o./ ] ,.2.h.v.v.n.n.n.n.C.Z.Z.C.z.l.l.n.C.F.F.Z.n.Z.v.n.v.h.3.,.*.~ ..$.$.&.;X-X&.7.>X7X7X>X7X8X=X).",
"sX7X9X7X7X&.$.$.&.>X>X-X$.X.' / ' ] =.<.3.8.c.n.n.n.n.n.C.Z.Z.Z.F.Z.C.Z.C.Z.n.n.v.v.h.8.,.[ ' / ( X.o.!.>X>X-X$.$.&.>X7X9X7X3X+X",
"5X:X:X-X$.X.X.&.>X>X-X$.$.$.$.X.( ! ) *.,.3.3.v.v.n.n.n.n.n.n.n.n.C.n.Z.n.n.n.v.c.8.1.:.` ! ^ ..o.$.$.$.&.;X>X;Xo.X.o.-X;X:XoXOX",
"$XaX5X7X!.$.-X<X;X%.$.$.&.&.$...( ! Q ! ` =.1.8.r.j.j.v.x.n.C.n.n.n.n.v.v.c.c.3.3.:.` ) Q ^ ( ..o.&.7.%.$.$.!.>X>X&.$.[.5X*X+X).",
"@X+X@X5X>X7X>X].o...o.&.&.X...X.o...( Q Q ! 4.5.8.8.h.8.h.j.h.j.j.v.c.j.h.k.8.M.5.~ Q Q Q ..o.o...X.@.7.$.X. .7.;X>X>XXX@X).).).",
"@X@X@X%X.X[.&.o...o.&.%.X.( ' o.o.( ^ ^ Q Q !.&X5X<Xs.m.m.k.z.k.l.m.M.M.M.<X4X*X|.Q Q ^ ^ ( X.o.../ ..$.&.$.( X.%.-X3X}.+X).+X).",
"@X@X@X@X@X#XoX%.$.&.%.X.( ( X.X.( / ^ ( ^ | #X@X#X_.#X%XXXoXoXoXoX*X*X%X$X@X_._.+X .^ / ^ ^ ( X.X.( / ..$.&.$.o.[.|.#XOX_.).).).",
"#X@X@X@X@X@X$X[.%.$.O.$...o.o.../ ^ / ( ^ X.#X_._.@X@X@X_.@X+X+X_._._.@X_._.@X_._.Q./ / ( ^ ^ ( o.X.X.@.o.$.!.!.%X+X_._.OX+X)._.",
"@X@X@X@X@X@X@X&X[.[..X3X$.X...( ( ( ..( ( ~.#X@X@X@X_.@X+X@X+X+X+X+X+X+X@X).@X+X@X#X ./ ..( ( ( ..X.@.|.=X~.oX#X).@X).@XOX)._.).",
"$X@X@X@X@X@X@X@XOX@X@X#X#.@.o.-X-Xo./ ( Q.$X_.@X@X_._.@X@X+X@X+XOX+X+X+X@X@X+X+XOX_.~.@./ X.&.[.@.o.@.#X).@X@X@X@X@X).).@X_.).@X",
"$X@X@X@X$X@X@X$X$X@X@X@X|.5XaXsXaX!.%.~.#X@X@X_.@X@X@X@X+X+X@X+X+X+X+X+X+X+X+X+X@X+X+X|.Q.!..X&X$X&X|.@X@X@X@X).@X).).@X@X).).@X",
"@X@X@X$X@X@X@X@X@X@X@X#X@X@X@X#X#X@X@X@X@X@X@X@X@X@X@X@X@X@X@X+X+X+X+X+X+X@X+X+X@X#X_.@X_._._.@X@X_.@X_.@X).@X@X@X@X@X@X_._.@X_."
};
