/* XPM */
static char *result[] = {
/* columns rows colors chars-per-pixel */
"64 64 31 1 ",
"  c #74ABD7",
". c #7AACD7",
"X c #76ABD8",
"o c #7BADDA",
"O c #7FB0DC",
"+ c #80AFDB",
"@ c #83B3DD",
"# c #88B6DF",
"$ c #86B8DF",
"% c #8EBCDE",
"& c #93BDDE",
"* c #9ABEDF",
"= c #86B6E0",
"- c #89B7E0",
"; c #86B8E0",
": c #8CBAE2",
"> c #8FBDE8",
", c #93BEE3",
"< c #9ABEE2",
"1 c #94BFE8",
"2 c #97C0E5",
"3 c #9AC2E6",
"4 c #97C1E8",
"5 c #9DC4E8",
"6 c #A2C4E5",
"7 c #A6C8E7",
"8 c #A3C6E8",
"9 c #A8C7E8",
"0 c #A6C8E9",
"q c #ABCBEB",
"w c #B0CEEF",
/* pixels */
"++o+o+oooo..o.o.oooooOooOo.... .XXXXXXXXXXXXXXXXXXXXXXX         ",
"@oo++++++++oo..ooooOOOooooo.....XooXXXXXXXXXXXXXXXXXXX          ",
"++=ooo++oo++..++OOOOOoOO@..o....OooXXXoXXXXXXXXXXXXXXXXX X      ",
"@@++=++o+++o++++O@++OOo+o.@.O..OXoooooooXXXXXXXXXXXXXXXXXXXX    ",
"+++=o+@o+++o+++++++O+++++O++...+ooooooooXXoXXXoXXXX+XXXXXXXX    ",
"+=+==++++o@@+@o@++@@#++++.+..+..ooooooooooXXoXXXXXXXXXXXXXXXXX  ",
"@+=++o++@@@oo@@@+---#++++++.+.++OOoooooXoXoXXoXXXXXXX+XX+XXXXXXX",
"+++++=@@o@@@@=@@##---+++++++.++.OOooooooXooooooX+X+XXXXXXXXXXXXX",
"+@+++@@+@@@@#@=@####++#+++++++++OOOoOooooooooooooXoXXXXo+XXX+XXX",
"@+@+@+@@@@@=-===##+#+#++++++++++OOOOOOooooooooooXXoooXoXXXXXXXX+",
"@+@@@@@@@@@-:-=##+#+#+#+#++#-+++OOOoOOOOoooooooo+XoXXXoX+XX+XX+X",
"@@@@@@%@@@#%:--=##+++###+#+#+--+OOOOOOOOoOOooooo++ooooooX++X++XX",
"@@@@@@$@@@##----#######--###+##+OOOOOOOOOOOOOOoo++X+XooXooooXooo",
"@@%@@$@$####--#######-----#####+OOOOOOOOOOOOOOOOX++Xoooooooo+oXo",
".%@@$#$#########--##----*-##-#--OOO>OOOOOOOOOOOO+X+Xoooooooooo+o",
"%+%@@$$###@#@###---#<---#------+>OOOOOOOOOOOOOOO++++oooXoooooooo",
"@%###################-1--1->>>--%##@@+@+.%+@@O@O++++oooooooooo=o",
"%@%$%#$@#+###########,>1>>1>>>>>:#%#%%++..%++@OO++++oOo=ooo=oooo",
"%$%$##%@#+#####+####-----11-->>>:-##++@@@@@+@@@O+++ooooooooooo=o",
"%$%$##%#######+#####------------:-%@%@@+@@@@@+O@++++OoOoo=oo=o=o",
"---=%######@########-#-#----------##@@+++@@+@@OO++o+=oO==OOooo=o",
":-,%#%%#-@#####-####-++#+####--#-###%@%+@@@%@@$O+==oo=OOoo===o=o",
"::::-%#####@##-@#+###+##+#-+####+#@@+@@@@.@@@@@@++=oOoooo=oo=oo=",
":::-,#%#-#####-@+-#####+######-+#@#@%@@O%%@@@@@O=++=====o===o=oo",
"::::-:##%#######----#######+-+-#+++#++##@$@@$@@@@@@O=OO==OO=O=OO",
":::::::####-####--########-----++##+##+##@#@$@$@O@OOOO=@O==oOOO=",
"::::::#:#:######--####---------+##+#####=@$@@$@@==@==+=@==o==OO=",
"-::--:%-&#:---#----+--------#--##########$@-#@@$=OO===@@=O====o=",
":::::-##---#------------------###---####@$@@@$O;=;O;@@===+=-Oo=+",
"::::::,-:-:----------->-------##+--+####-@$@@$;OO=;;=@@@==++==+=",
"::::::::##:----:---->->-------#----#--##;=$@$;===O===@@===-==+==",
"::::::::,#-:::::-->----------#-#----#-##--@;;@=;==========-=====",
":;2::::::::::>;>::::::::----:=:=---------$@;$@$@;;$;:#==:#--#@#@",
"2>;:>::::::::;>;>::>>:::>----:=:---->-------;-=;;;;-$--$#=-#-$#=",
"2;::::-::-:>>;2;:>>-::::---::-:;-->---------;;;;;;=-#-%-:=:$##$$",
"4;>:2:>-:::::>;2:::>-:$%1-:--:----------=$$=-;#;$$$-:-=:%=#:$#%#",
"2;4;:>:,:::>2;2%:::,%%%#::::>;;---------:#=#-$-$--#:########%#%#",
";2>>,:,:>:,>%2$$::%%%%%%:::;;;;>::::---1--#::----$#:#%%##%####:=",
"2::,:,:,:,::$%%,%%&&%%%%$:::;:;::-:--,--%-:-%=:%:-%#-%-#,#,##:#:",
">2:,2:2:2:,,2&:&&&%&&&%%&:;>>;>:#,::---<::#-%---%-=::#-::#--%-=%",
"2:>,::22,:1,:,,&&&&&&&&&#,::>-::::::::::::::::$%--::-::$:%:-:--:",
"22,,222:11,,,,,&&&,&*&&&,<,::>>:::::;;:::::::::::%:%:%::::::%:::",
"2,2,22221<1<<,,,<&**&**,,-1-1>::::::;2::::$::%:$::::::::::%::::%",
"22,222:211<1,<<<<*****<&<1<11>1:,::12;2:2$2::$2:::::::::::::::::",
"4,,1,2,21<1<<1<<*******<<<-<1:1,,,,:>>:2:22$2$%:2$:2:,:%2$:%2:2$",
"34<,2,2,11<1<<<<*******<<<111>1,,::,:,,:2$::%22::22$:,:,$2:2::2:",
"4,133,22<51585<89666666*<<<,111,:,::,::,:2$::2%:::$&:::%,%::::%2",
"333<131341<5886999999666<<-<1<1,,,,,,,,,2$2%,::,22:%%%,%,:&$222:",
"33<53,3<133585887qqq776**&3&<11,%222$222%22%%2%2&%:&:&:,%:%:22%2",
"11<<<3<33<<658897qqww7776*,,111,22$%22$%22%222%%:22:%%,%&,2:&22:",
"<5313<3<<13<<889qqwww77*<*<,<1122$22%2$2%2$%%22%2%&%%,,&,,%&2%2%",
"5<33<33333338<8877wwq77*<<<<,13,22%222222222%2%2%2,2&,,,,,222222",
"3<3<333<3<<6<888777w7773<<*,3,4,22222222%22%&22222&2,&2&22222222",
"553<<3333333<5<6777777773<,2,344222%22222222222&,2,222,222222%%2",
"33333333333<3<56777777756*,<,444222222222%22&&222,2,,,2222422%22",
"5333333333333<6<*7&7777&3*3&<4342222222222222222,2,2222222442222",
"553555553333336353337357555&3232223332232222222222444431224422&2",
"555555555653533553377&553&5555334232232332222&2322233333422222&2",
"5555555555555353355322555&33333344435244323&332&2243341542332&22",
"55555555555535355533555&5533253344332554333332323333545134423222",
"755505558555855<555553335333373333335252333333332343551815153,,3",
"550555505555555555555273553535333333222533332333333345515151234<",
"055555555885555553535535335333553333335333333333333315555<433131",
"5575755755555858755375537537555&73535335335353533555553515353333"
};
