/* XPM */
static char *result[] = {
/* columns rows colors chars-per-pixel */
"64 64 224 2 ",
"   c #DE963B",
".  c #E38E34",
"X  c #E39435",
"o  c #E49A37",
"O  c #E99A37",
"+  c #E49D39",
"@  c #E99E39",
"#  c #DAA23F",
"$  c #E4A43A",
"%  c #EAA43A",
"&  c #E4AC3C",
"*  c #EBAC3C",
"=  c #F0A63C",
"-  c #E4B33E",
";  c #EBB33E",
":  c #E6B83F",
">  c #F1B33F",
",  c #BEAD7C",
"<  c #DCA845",
"1  c #DDB349",
"2  c #CEA95B",
"3  c #D5AC56",
"4  c #D9B65A",
"5  c #E7AA45",
"6  c #E2AC44",
"7  c #E4B443",
"8  c #E7BC41",
"9  c #ECBB41",
"0  c #E9B64A",
"q  c #F2B442",
"w  c #F2BB41",
"e  c #F3B94F",
"r  c #E3AE57",
"t  c #E6B957",
"y  c #F3BC54",
"u  c #CDAB65",
"i  c #D3AD6A",
"p  c #D7B866",
"a  c #D6BB78",
"s  c #E7BD69",
"d  c #F4BF66",
"f  c #ECC242",
"g  c #EECA45",
"h  c #EEC34B",
"j  c #F3C343",
"k  c #F4CB46",
"l  c #F4CD49",
"z  c #F5D147",
"x  c #F6D349",
"c  c #F8D64A",
"v  c #F6D94D",
"b  c #F8DA4C",
"n  c #E9C656",
"m  c #F2C85B",
"M  c #E9D058",
"N  c #F6D857",
"B  c #F9DE54",
"V  c #F9E054",
"C  c #F9E15C",
"Z  c #DEC46C",
"A  c #DAC576",
"S  c #DBC37C",
"D  c #E8C667",
"F  c #EDC46A",
"G  c #F3C563",
"H  c #F4CB62",
"J  c #F4C56A",
"K  c #F5CA6C",
"L  c #EFD36B",
"P  c #F5D76A",
"I  c #E7C777",
"U  c #ECC472",
"Y  c #EACC7B",
"T  c #F1C773",
"R  c #F5CB74",
"E  c #F4CC7C",
"W  c #F5D374",
"Q  c #F7DB77",
"!  c #F6D37B",
"~  c #FAE262",
"^  c #FAE56D",
"/  c #FAE574",
"(  c #FAE57B",
")  c #FBE979",
"_  c #74ABD7",
"`  c #7BACD6",
"'  c #76ABD8",
"]  c #7BADDA",
"[  c #7FB0DC",
"{  c #BDB68C",
"}  c #B6BAA9",
"|  c #ACBBBB",
" . c #B2BBB5",
".. c #C6BB88",
"X. c #D1BB88",
"o. c #C9BB94",
"O. c #C3BCA5",
"+. c #BEC6AC",
"@. c #BBC4B4",
"#. c #B5C6BA",
"$. c #BBC3BB",
"%. c #CBC28A",
"&. c #D9C589",
"*. c #CBC595",
"=. c #CCC699",
"-. c #D7C795",
";. c #D3C49C",
":. c #E8C886",
">. c #EACD84",
",. c #E5CA8C",
"<. c #F3CD84",
"1. c #EDD384",
"2. c #EDD48C",
"3. c #F5D383",
"4. c #F5D38B",
"5. c #F8DB8A",
"6. c #E3C992",
"7. c #EDD593",
"8. c #E7D79A",
"9. c #F4D592",
"0. c #F5DA94",
"q. c #F9DC93",
"w. c #F7D999",
"e. c #F6DC9C",
"r. c #FBEA84",
"t. c #F9E38A",
"y. c #FCEC8C",
"u. c #EFE09A",
"i. c #F9E295",
"p. c #FCED92",
"a. c #F6E59B",
"s. c #F9E19A",
"d. c #FCF095",
"f. c #FCF09C",
"g. c #C9C7A7",
"h. c #D5C9A5",
"j. c #C5C7B7",
"k. c #C4CABB",
"l. c #CBCCBB",
"z. c #D4CDB5",
"x. c #E4D2A7",
"c. c #F4DDA4",
"v. c #F9DFA2",
"b. c #E3D4B4",
"n. c #EFE3AA",
"m. c #FAE3A4",
"M. c #F8EAA5",
"N. c #F4E2AC",
"B. c #F9E5AA",
"V. c #FAEBAD",
"C. c #FCF1A3",
"Z. c #FDF3AC",
"A. c #EFE5B2",
"S. c #F5E5B7",
"D. c #FAE4B1",
"F. c #F4EBB4",
"G. c #FAEBB3",
"H. c #F4EBBC",
"J. c #FBECBC",
"K. c #FDF4B4",
"L. c #F7F1BD",
"P. c #FDF5BB",
"I. c #FEF8BD",
"U. c #87AECD",
"Y. c #91B4C7",
"T. c #95B6CB",
"R. c #9CBBCC",
"E. c #82ADD2",
"W. c #80AFDB",
"Q. c #86B1D4",
"!. c #8BB4D4",
"~. c #82B2DC",
"^. c #8AB6DD",
"/. c #8EB9DE",
"(. c #91B7D4",
"). c #93B8D3",
"_. c #9CBDD3",
"`. c #93BBDD",
"'. c #9CBEDA",
"]. c #A7BCC7",
"[. c #A1BFD3",
"{. c #86B6E0",
"}. c #8AB7E0",
"|. c #8CBAE1",
" X c #94BEE4",
".X c #98BFE1",
"XX c #9DC1DC",
"oX c #ADC2C3",
"OX c #ADC2CB",
"+X c #B3C4C5",
"@X c #B2C3CB",
"#X c #BBC9C8",
"$X c #A4C2D4",
"%X c #ADC4D3",
"&X c #A3C3DC",
"*X c #ABC7DA",
"=X c #B4C9D4",
"-X c #97C0E5",
";X c #9BC2E6",
":X c #9DC4E8",
">X c #A2C5E4",
",X c #A6C8E7",
"<X c #AAC9E5",
"1X c #A2C6E8",
"2X c #ABCCEB",
"3X c #B2CEEA",
"4X c #C6CBC5",
"5X c #C1CCCB",
"6X c #F4ECC2",
"7X c #F7EBC5",
"8X c #F5F1C5",
"9X c #FCF3C4",
"0X c #FEF9C4",
"qX c #F6F2CB",
"wX c #FCF6CB",
"eX c #FEFACC",
"rX c #F9EDD0",
"tX c #FCF5D3",
"yX c #FEFBD4",
"uX c #FBF6DC",
"iX c #FEFCDC",
"pX c #FAF7E0",
"aX c #FDFDE3",
"sX c #FEFEEB",
/* pixels */
"W.W.W.] ] W.W.] ] W.` ` ` ] ] ` ] ] ] ] [ [ ] ` [ ] ` ` ' ` ' ' ' ] ' ' ' ' ' ] ' ' ' ' ' ' _ _ _ ' ' ' ' ' ' _ _ _ _ _ _ _ _ _ ",
"~.] W.W.W.] W.] ] W.W.` ] ] ] ] ] ] ] ] ~.] [ ] ] ` ` ` ` ` ` ] ] ' ' ] ' ' ' ' ' ' ' ' ' ' ' ' _ ' ' _ ' ' _ _ _ _ _ _ _ _ _ _ ",
"W.~.~.~.[ W.[ [ W.W.] ] W.] W.W.[ [ [ [ ] [ ] ] ] ] [ ` ` ` ] ] ' ] ] ' ] ' ] ' ' ' ' _ ' ' ' ' ' ' ' ' ' ' ' ' _ _ _ ' _ ' _ _ ",
"~.W.~.[ W.[ [ [ W.] W.W.] W.] W.[ [ ~.[ ~.[ ~.[ ] ] [ ` ] ` ` ] ] ] ] ] ] ] ' ] ' ' ' _ ' ' ' ' ' ' _ _ ' ' ' ' _ _ _ ' _ _ _ _ ",
"W.W.W.~.[ W.[ [ W.W.] W.W.W.W.W.] ~.[ [ W.W.~.W.~.] ` ] ` ` ` [ [ ] ] ] ] ] ] ] ' ' ` ` ' ] ' ` ' ' ' ' ' ' ' ' ' ' ' ' _ _ _ _ ",
"W.W.~.~.W.~.{.W.W.W.~.W.W.W.W.W.~.[ ~.~.^.W.W.W.[ Q.[ ` ] Q.` ] ] ] ] W.[  X]. .o.a i { E.` ' ' ' E.E.' ' ' ' ' ' ' ' ' ' _ _ _ ",
"{.W.~.W.~.W.W.W.~.~.W.~.~.W.W.{.~.{.{.{.}.W.~.W.] [ ] Q.] ` [ [ [ ] W.W./.].4XO.X.X.i , E.` ' ' ' ' ' ' ' W.' W.' W.' ' ' ' ' ' ",
"~.~.~.[ W.W.{.W.~.~.W.{.~.~.~.{.{.{.}.}.{.W.W.W.Q.[ [ ] ` [ W.] W.W.W.[.5XO.s d U d * 2 U.` ] ` ' E.' ' ' ' ' ' ' ' ' ' ' ' ' ' ",
"[ Q.~.[ ~.~.[ ~.~.~.~.^.~.{.{.~.W.}.}.W.}.W.W.W.W.W.W.W.W.W.W.W.W.{.}.].j.-.d R E J 5 i U.` ] ` ' ' ] ' ] ' ' ] ' ] ' ' ' ' ' ' ",
"~.[ ~.~.~.~.~.~.~.~.~.{.}.{.}.{.}.}.W.}.}.W.W.^.^.W.Q.W.W.W.W.}.}.[.5Xh.J 4.v.D.7Xc.a ..E.] ] ] ] ] ] ] ' ] ' ' ' ] ' ' ' W.' W.",
"~.~.~.~.~.~.~.!.!.!.^. X X|.}.^.}.W.^.W.W.}.W.W.W.~.W.W.W.Q.^.!.`.].l.6.J 4.S.7XrX6X:.o.E.] ] ` ' W.] ' ] ' ' ] ] ] ] ] W.' ' W.",
"~.~.~.~.^.~.!.R.]. . .].%X&X'.`.}.^.W.W.W.}.}.~.W.^.^.^.W.}.|.[.4X;.d <.m.7XaXpXpXqX6.o.Q.W.] ] ] W.] ' ] ] ] ] ] ] ' ] ' ' ] ' ",
"~.~.~.~.~.^.^.|  .} } @X+X[.*X'./.}.^.}.^.^.}.}.}.^.^.^.}.|.`.@X4X,.J 4.D.9XsXaXpXqX:.o.Q.W.] ] ' W.' W.] ] ] ' ' ] ] ] ' ] ' ] ",
"~.^.[ -X~.^.Y.u 3 1 t s I -.6.].5X[.[.'.}.}.}.}.}.}.^.{.|.[.#XO.U 3.q.G.uXaXsXpXpX6X:.o.Q.W.~.] W.W.] ] ' ] ] ] ] ] ] ] W.W.] ] ",
"~.~.[ Q.~.{.Y.< 5 > q y d <.6.O.4X].=X&X'./.|.|.}.}.}.}. X].l.,.G 3.B.9XaXsXsXsXpXqX:.o.!.W.] W.W.W.W.] ] ] ] ] ] ] ] ] ] ] ] ] ",
"-X[ [ -X^.{.T.4 e F Y 9.w.w.9.9.<.,.6.O.4X].=X[.<X'. X[.].g.s <.q.D.tXaXsXsXsXsXpX8XI o.!.W.W.W.] W.] ] ] ] ] ] ] ] ] ] ] W.] ] ",
"[ ~.-X[ -X[ Y.4 t :.7.c.S.e.q.3.W ! <.h.z.4X#X=X=X<X.X*X5X-.m 3.B.9XsXsXsXsXsXpXuX6XU X.!.Q.[ ~.W.W.W.] ] ] ] ] ] ] ] ] ] ] ] ] ",
"[ -X[ -X` -XXXS I >.:.N.6XH.L.G.B.m.s.0.7.2.:.x.x.z.4Xh.:.4.q.D.tXaXsXsXsXsXsXsXuXH.U %.(.~.~.[ W.W.W.W.W.] W.] ] W.] ] {.] ] {.",
"-X[ -X[ ^.^.(.-.6.>.Y A.6X8X8XqX9XG.D.i.q.! ! 4.9.x.z.,.e d <.D.tXsXsXsXsXsXsXpXuXH.F X.!.[ ~.[ W.W.W.W.] ] W.W.] ] ] ] ] {.] ] ",
"[ -X[ -X|.^./.oX#.D L 8.A.H.8XqXwXwXwX9XP.G.B.B.m.e.0.9.e d E 9.c.uXsXsXsXsXsXaXuXJ.D A (.~.[ ~.W.W.W.W.W.W.W.W.{.] {.] ] ] ] {.",
"{.|.|.{.^.|.^.XXoXZ D 7.n.H.8XeXqXyXyXyXeX9X9XB.m.s.q.q.q y R J E 7XpXsXsXsXsXiXtXF.J a !.Q.~.~.{.] W.W.W.}.W.W.{.[ [ [ {.] ] {.",
"|.|.|.|.|.|.^./.$X-.:.Y 1.n.H.8X9XwXwXyXyXyXyXwXwXwX9X9X<.w.6Xc.9.E 7XrXsXsXsXuXuXV.F a (.~.~.[ ] {.W.W.W.W.W.W.] ] {.] ] {.] ] ",
"|.|.|.|.|.^.^.|.).-.6.Y I n.F.L.8XwXeXyXyXyXyXiXiXyXiXwX4.B.tX6Xv.E c.7XpXsXsXiXuXD.m a !.^.~.~.{.W.{.}.^.^.^.U.{.] [ {.{.] {.] ",
"|.|.|.|.|.|.|.^./.+X#.A M 2.n.F.L.0X0XwXeXeXyXyXyXyXyXtX4.D.aXsXuXv.d E 7XpXsXiXwXV.G a (.^.^.~.{.{.;X[.].O.| ].{.{.[ {.] {.] {.",
"|.|.|.|.|.|.{.{./.$X%XA n 1.u.F.L.I.9XwXeXeXeXyXyXyXyXeX<.B.pXsXsXuXB.q.J D.rXuXtXB.G S _.`._.$X].O.6.I s 0 < 3 W.{.{.{.W.{.W.W.",
"|.|.|.|.|.|.|.^.^.-X).-.Y Y Q a.V.P.P.0X0X0XeXeXeXeXyXwX<.N.pXsXsXaXJ.m.K w.D.tXtXG.! >.l.k.4Xl.l.h.,.E K w 7 < {.[ {.W.W.W.{.W.",
"|.|.|.|.|.|.|.{.|.^.(.g.,.L L a.M.K.K.I.0X0X0X0XeXeXyX9XR c.pXsXsXsXsXtXm.K G 7XrX9Xw.c.b.x.6.E R ! q.N.N.7.t s W.W.{.{.{.[ W.{.",
"|.|.|.|.|.|.{.|.|.|.`.k.h.D l t.a.Z.K.P.I.I.0X0X0XeXwXI.T m.uXsXsXsXsXaXtXs.q.3.D.D.w.4.<.5.w.m.B.G.H.H.A.>.I &.}.W.{.W.W.{.{.W.",
"|.|.-X{.|.|.|.|.^.|.^.*X5XM g P t.C.Z.K.K.P.I.I.0X0X0XP.T e.uXsXsXsXsXsXaXJ.m.! v.B.w.5.! q.M.D.9XqXqX6XF.Y ,.h.~.{.{.~.{.{.W.W.",
"|.|.{.|.|.|.|.{.|.^.|.'.$X%.Z L P y.f.Z.Z.K.K.I.I.I.I.P.K w.tXsXsXaXsXsXaXiXyXD.s.q.v.B.P.qXeXyXwXwX7XA.8.D @.%X^.^.^.~.{.W.{.{.",
"|.|.|.|.|.{.-X|.|.^.|.|.}.oX@.M c ) d.C.Z.Z.K.K.K.K.I.K.G q.uXaXsXsXsXaXaXaXiXwXG.G.P.9XwXyXyXeXwX8XH.8.2.U k.*X/.^.^.{.{.{.{.{.",
"|.|.|.|.|.|.{.|.|.{.|.|.|.#.g.M x ^ r.d.f.C.Z.Z.K.K.K.Z.m q.tXsXsXsXaXaXaXaXaXiXiXiXyXiXyXyXeXeX8XL.F.1.T ,.h.g.]._./.}.~.{.{.~.",
"{.-X-X[ |.|.|.|.|./.^.-X/.#.g.l c ~ / y.d.f.C.Z.Z.Z.Z.V.m q.eXaXaXaXaXaXiXiXiXiXiXyXyXyXyXeX0X9XL.F.u.D n 4.E :.j.].`.|.^.^.W.{.",
"-X[ -X-X-X|.|.|.|././.XXOXS Z l x V C / r.p.d.f.C.Z.V.m.K s.tXaXaXaXaXiXiXiXiXyXyXyXeXeXeX0X0XP.K.M.1.L I w.4.:.:.X.} | ^.^.^.{.",
"{.-X|.|.{.-X|.|.|.-X/.@Xk.n j z x B V ~ ^ r.y.f.C.V.B.e.! m.eXaXaXaXiXiXiXyXyXyXyXeXeXeX0X0XI.K.M.a.H 1.7.G.q.3.y t X.o.(.{.^.^.",
"-X{.-X{.-X{.|.|.^.XX$X%.Z g j k c c B V C / i.i.s.4.5.5.V.9XiXiXiXiXyXiXyXyXyXeX0X0X0XI.I.K.K.Z.y.Q k a.7XJ.B.m.R d 4 i T.{.^.^.",
"-X|.|.-X|.|. X|.-X=X4XM j j j z z c c B B P 5.5.5.q.q.w.I.wXiXiXiXiXyXyXyXyXeXeX0X0XI.K.K.K.Z.C./ P N B.qXwX8XF.9.E 5 # T.^.{.^.",
"{.-X-X|. X|. X;XXX%.S 8 > j j z k c c P P W ! W Q m.J.wXiXiXyXiXyXyXeXeXeX0X0X0XI.K.K.K.Z.Z.f.y.v N B.J.J.J.N.M.<.R q 1 T.^.}.}.",
"-X{.{.-X|. X X&X+Xn h w > w j k k m H R H W q.G.J.yXyXyXyXyXyXyXeXeX0X0XI.I.I.K.K.K.Z.C.C.f.r.^ x N i.M.M.m.i.i.E K q 7 T.^.}.}.",
"-X-X-X|.|. XXXg.*.0 q > > w > j k m H E W 5.B.9XwXyXiXyXyXyXeXeXeXeX0X0XI.I.I.K.K.K.C.C.f.y.) ~ x l P 5.8.8.8.,.4.4.%...).^. X}.",
"|.-X-X|.-X-XXX&.D % = = > > > > e e m 9.G.9XtXyXyXyXyXeXeXeX0X0X0XI.I.I.K.K.K.Z.C.C.f.d.y.^ C V c l j W 8.=.*.-.8.x.=X&X|.|.^.|.",
"|.-X-X{.-XXX@.t 7 % @ = * ; ; ; = T 4.J.9XtXyXyXeXeXwX0X0X0XI.I.I.K.K.Z.Z.C.C.f.f.d.y.) ^ V b b x l j h M k.#.#.$.#XXXXX|.|.|.|.",
"-X-X-X-XXXg.*.& O O % % % * * % = E 0.J.9XwXwXwXwXwX0X9XI.I.I.K.K.K.Z.Z.Z.C.C.f.p.y.) ^ V v v x z k w j f #.XX).`.`.|.|.|.|.|.|.",
"-X-X-X-XXX%.a $ O O O % $ % $ ; w K ! q.M.M.V.K.K.K.P.P.K.K.Z.Z.Z.C.C.f.d.d.y.r./ ^ B v x z z z k j j q w g @.&X`.|.|.|.-X|.^.-X",
"-X.X-X-X].< + . . X o o o $ $ 6 0 ! ! H P P Q 5.5.t.y.t.p.p.p.p.y.y.r.r.) ) ^ C N v v g g g g g j f > ; > = Z *.XX~.-X[ |.-X[ -X",
"-X-X-X$XoX< o . . X X o o o o & 0 Y R h h m P Q Q Q Q ( Q ( ( r.r.) ) / ^ ~ C b v x x g g g f f w > > > * % t Z $X-X-X-X-X^.[ -X",
";X X-X@.} . . . . X . X X o o $ $ 6 & & & - 8 m N 0 > f h k x N C C V V b b b z g g g f f 8 8 : ; * & * % O $ # *.oX[ -X-X-X-X-X",
"-X;X-Xg.o.  .   X X   o o #   $ 6 6 6 1 1 4 1 n h 8 : : : h k c b b b b b c c z g g f 8 8 : : - & & $ $ $ o X o 4 } -X-X{.{.-X-X",
";X X;X&.S <       $ & # - - 1 4 s :.&.h.z.l.l.,.U 0 & & ; 9 j z z c c z z k z k f f 8 : - - & & $ $ $ o o o . . $ , XX^.-X-X-X-X",
";X X;X*.o.i 2 2 2 2 2 3 4 u Z &.-.O.z.4X4X5X5Xh.%.4 & & ; : 9 j j z z z z k k f 8 : : : - - # $ $ o o   X . . . . u #.-X^.-X-X^.",
";X;X;XXX:X[.[.&XXXXXXX$X$X&XXX&X<X2X3X3X3X2X>X[.$Xa 8 * % * ; w j z k k j j j : : - n p Z u Z 4 1 < # $ # o   X   u *.-X[ -X-X-X",
";X.X;X;X:X.X X.XXX-X-X;X;X:X1X>X2X2X3X2X3X2X>X>XXX} 4 7 $ * ; 9 > j j j j > : ; - # A h.#X$.g.%.S Z - - - # # #   4 &.-X-X-X-X-X",
";X X.X;X X;X;X;X.X.X.X;X;X>X>X>X,X2X2X2X2X,X>X:XXX%X#Xi $ * ; ; > > w > > ; ; % ; : #.XXXX-XXXXX)._.R.R.R.R.R.R.Y.$XXX-X-X-X-XXX",
";X;X;X.X;X;X.X;X:X.X1X;X;X;X>X>X>X,X2X<X2X<X>X>X;X&X=X..6 - ; ; > > > > ; * * $ : 1 XXXX-X-X-X-X-X-X X-X-X-X X X-X-X-X-X-X-X-X-X",
";X;X:X:X;X:X.X.X.X1X;X.X.X.X:X>X>X>X>X,X,X,X1X1X;XXX.X@.:.7 q ; * % ; * % % $ $ =.#X-X/.-X-X-X-X-X X X X X X-X-X-X-X-X-X-X-X~.-X",
"1X;X.X;X;X;X;X:X:X.X;X.X1X>X.X.X>X'.>X>X>X>X1X1XXX-X.X+Xg.4 $ * * % % % $ o o s #.XXXX-X-X-X-X-X X-X-X X-X-X-X-X-X-X-X-X-X-X-X-X",
":X:X:X:X:X:X:X1X:X.X:X X:X:X:X:X1X:X:X:X:X1X1X:X;X.X.X;X>X..7 & % O @ @ O O $ I +XXX-X-X-X-X-X-X:X X X X X:X:X X-X-X:X-X-X-X-X-X",
":X:X:X:X:X:X:X:X:X:X1X.X:X.X.X:X X1X.X1X:X.X:X.X:X;X:X:X:X{ 0 - * X X O . % 6 ..XX:X-X-X-X-X-X-X X X:X:X:X X:X X-X-X-X-X-X-X-X-X",
":X:X:X:X:X:X:X:X:X:X:X:X1X.X:X:X:X.X:X:X:X.X:X:X.X:X;X;X:X%X$.n 7 . X X X 5 D g.XX:X;X;X-X-XXX-X:X X:X X:X:X:X:X-X-X-X-X-X-X-X-X",
"1X:X:X:X:X:X:X:X:X1X:X:X X1X.X:X1X.X:X.X.X:X:X.X.X:X;X;X:X>X=XD 0 . . . @ 3 :.+.XX;X-X-X-X;X-X-X:X:X X:X:X X:X X-X-X:X-X-X-X-X-X",
":X:X:X:X:X:X:X:X1X:X1X:X1X1X:X:X.X:X:X:X:X:X.X:X>X;X;X;X;X;X&Xz.I X X + s i l.@XXX-X:X;X-X:X-X:X X:X:X:X:X:X X X X:X-X-X-X-X-X-X",
":X1X1X:X1X:X:X:X:X:X:X1X1X X:X:X:X:X:X:X:X:X:X.X;X;X1X;X;X;X1X#X;.r 5 0 r a #X=X;X;X-X:X-X-X-X-X:X X:X X X:X:X:X:X-X:X:X-X-X-X-X",
":X1X:X1X1X1X1X:X:X1X1X X:X:X:X:X:X:X:X.X:X:X;X1X:X.X.X:X;X:X;X>X+XA 6.&.Z g.&X>X:X:X:X:X:X:X-X:X:X:X:X:X:X:X:X:X X:X:X-X;X-X-X-X",
"1X1X:X:X:X1X:X:X1X:X1X:X1X:X:X1X:X1X1X1X:X1X;X:X1X:X:X1X:X:X:X:X:X@Xk.-.A +.>X:X-X:X-X:X:X-X:X:X-X-X-X:X:X X:X:X X:X-X:X;X;X-X-X"
};
