/* XPM */
static char *result[] = {
/* columns rows colors chars-per-pixel */
"64 64 147 2 ",
"   c #010101",
".  c #0B0B0B",
"X  c #131313",
"o  c #1C1C1C",
"O  c #1D1E20",
"+  c #232324",
"@  c #272B2E",
"#  c #2C2C2C",
"$  c #2A2E31",
"%  c #333334",
"&  c #3B3B3B",
"*  c #3A3E42",
"=  c #3D444A",
"-  c #464646",
";  c #4D4D4D",
":  c #4F5152",
">  c #535354",
",  c #525658",
"<  c #555A5D",
"1  c #5B5B5B",
"2  c #5C6166",
"3  c #576169",
"4  c #646464",
"5  c #656768",
"6  c #6C6C6C",
"7  c #656D73",
"8  c #6D6F71",
"9  c #6D7174",
"0  c #747474",
"q  c #74777A",
"w  c #7B7B7C",
"e  c #7C7E80",
"r  c #7E8286",
"t  c #7D8389",
"y  c #7F8890",
"u  c #74ABD7",
"i  c #7AACD7",
"p  c #76ABD8",
"a  c #7BADDA",
"s  c #7FB0DC",
"d  c #848484",
"f  c #838789",
"g  c #878A8C",
"h  c #8C8C8C",
"j  c #808C96",
"k  c #898E92",
"l  c #8E9092",
"z  c #86929C",
"x  c #8D969D",
"c  c #939393",
"v  c #989797",
"b  c #939699",
"n  c #979A9C",
"m  c #9B9C9C",
"M  c #A09F9F",
"N  c #8897A3",
"B  c #8D9BA6",
"V  c #8D9CAA",
"C  c #959CA3",
"Z  c #9D9FA0",
"A  c #9EA1A4",
"S  c #92A0AC",
"D  c #9DA5AC",
"F  c #95A8B7",
"G  c #9BA8B4",
"H  c #9FADBA",
"J  c #A4A4A4",
"K  c #A2A5A8",
"L  c #A2A8AE",
"P  c #ABABAB",
"I  c #A2ACB4",
"U  c #ABAEB1",
"Y  c #AEB1B4",
"T  c #AFB4B8",
"R  c #B3B3B3",
"E  c #B8B7B7",
"W  c #B0B7BD",
"Q  c #B5BABD",
"!  c #BCBCBC",
"~  c #9AB1C5",
"^  c #80AFDB",
"/  c #83B3DD",
"(  c #88B6DF",
")  c #86B8DF",
"_  c #8EBBDF",
"`  c #9EBDD7",
"'  c #91BFDF",
"]  c #A4B4C3",
"[  c #A9B6C1",
"{  c #A9B9C5",
"}  c #A0B7CD",
"|  c #A4BACD",
" . c #ACBDCB",
".. c #B3BDC6",
"X. c #BBBEC1",
"o. c #A1BDD6",
"O. c #A8BED2",
"+. c #86B6E0",
"@. c #89B6E0",
"#. c #86B8E0",
"$. c #8CBAE2",
"%. c #8FBDE8",
"&. c #93BEE4",
"*. c #99BFE1",
"=. c #90BEE8",
"-. c #9EC2DE",
";. c #BEC1C4",
":. c #B6C4CF",
">. c #BBC6CF",
",. c #BFC8CF",
"<. c #A7C2D5",
"1. c #A3C2DD",
"2. c #AAC4DA",
"3. c #ADC8DF",
"4. c #B2C5D5",
"5. c #BCCBD9",
"6. c #96C0E5",
"7. c #9BC3E6",
"8. c #97C4EA",
"9. c #9CC3E8",
"0. c #A3C5E3",
"q. c #A7C9E7",
"w. c #AAC9E4",
"e. c #A1C6E8",
"r. c #A7C8E9",
"t. c #ADCCE9",
"y. c #B4CDE3",
"u. c #BACFE3",
"i. c #BAD1E5",
"p. c #C3C3C3",
"a. c #C3C6CA",
"s. c #C6CACC",
"d. c #CBCBCB",
"f. c #C3CBD3",
"g. c #CBCFD2",
"h. c #CDD2D7",
"j. c #C5D2DD",
"k. c #CAD2D9",
"l. c #D4D3D4",
"z. c #D7D8D8",
"x. c #DCDCDC",
"c. c #C4D5E3",
"v. c #C3D7E9",
"b. c #D0DAE4",
"n. c #E4E4E4",
"m. c #EBEBEB",
"M. c #F1F1F1",
/* pixels */
"^ ^ a ^ a ^ a a a a i i a i a i a a a a a s a a a a i i i i i p s p p p p a p p p p p p p p p p p p p p p u u p u u u u u u u u ",
"/ a a ^ ^ ^ ^ ^ ^ ^ ^ a a i i a a a ^ a ^ a s a a a a i i i i i a p a p p p p p p p p p p p p p p p p p p p u u u u u u u u u u ",
"^ ^ +.a a a ^ ^ a a ^ ^ i i ^ ^ s s / a / s a s ^ a a i i i i i a a p p p p a p p p p p p p p p p p p p p p p p p p u u p u u u ",
"/ / ^ ^ +.^ ^ a ^ ^ ^ a ^ ^ ^ ^ a / a / s s ^ s a ^ a a i i i s a a a a a a a a p p p p p p p p p p p p p p p p p u u u u u u u ",
"^ ^ ^ +.a ^ / a ^ ^ ^ a ^ ^ ^ ^ ^ ^ ^ ^ ^ ^ ^ ^ ^ ^ ^ ^ i i i ^ s a a a a p p s a p p p a p p p p p p p p p p p p p p p p p u u ",
"^ +.^ +.+.^ ^ ^ ^ a / / ^ / a / ^ ^ ^ / ^ ^ ^ ^ ^ ^ i ^ i ^ i i a a a a a a p p a p a p p p a p p p p p p p p p p p p p p p u u ",
"/ ^ +.^ ^ a ^ ^ / / / a a / / / @.@.( @.@.^ ^ ^ ^ ^ ^ i ^ i ^ i s s a a a a s p p a a p a p p p p p p p ^ p p p ^ p p p p p p p ",
"^ ^ ^ ^ ^ +./ / a / / / / +./ / ^ @.@.( ( ( ^ ^ ^ i ^ ^ ^ i ^ ^ s a s a s a a a a a a a a a a p ^ p ^ p p p ^ p p p p p p p u u ",
"/ ^ ^ ^ ^ / / / / / / ( / / +.+.^ ( ( ( ( ^ ( ^ ^ ^ ^ ^ ^ ^ ^ ^ s s s s a a a a a a a a a a p a p ^ p p p a ^ p ^ p p p ^ p p p ",
"/ ^ / ^ / / / / / / / / @.@.@./ ( ( ( ^ ( ^ ^ ^ ^ ( ^ ^ ^ ^ ^ ^ s s s s a s a a a a a a a a a a p p ^ p p p a p p p p p p p p ^ ",
"/ / ^ / / / / / / / / @.@.@.@.@.( ^ ( ^ ( ^ ( ^ ( ^ ^ ^ ^ ( ^ @.s s s s a a s s a a a a a a a a ^ p a a a a ^ p ^ p p ^ p p ^ p ",
"/ / / / / / / / / / ( _ $.@.@.#.( ( ^ ( ^ ( ( ( ( ( ( ( ^ ^ ^ ^ s s s s s a s s a s s s a a a a ^ ^ a p a a p p p ^ ^ p ^ ^ p p ",
"/ / / / / / _ / ( / ( ( @.@.@.@.( ( ( ^ ( ( ( ( ( ( ( ( ( ( ^ @.s s s s s s s s s s s s s s s a ^ ^ p ^ p ^ p ^ p p ^ p p ^ p ^ ",
"/ / i -./ / ) ) ( ( ( ( @.@.( @.@.@.( ( ( @.@.@.( ( ( ( ( ( ( ^ s s s s s s s s s s s s s s s s p ^ ^ p p ^ ^ p ^ ^ p ^ ^ p ^ p ",
"i -./ / ) / ) ) / ( ( ( ( ( ( ( @.@.( @.@.@.@.( @.( ( ( @.@.@.^ s s 8.s s s s %.s s s s s s s s ^ p ^ p ^ p p ^ p ^ p p a a a a ",
"/ i i 6./ ) ) ( ( ( ( / / ( ( ( @.@.@.@.*.@.( *.@.( ( ( @.@.@.@.s s s s s s s s s s s s s s s s ^ ^ ^ ^ p ^ ^ p ^ p a a a a ^ a ",
"6.i 6.i 6.i 6.i ( ( ( ^ ( ( ( ( ( ( ( ( ( $.&.$.%.@.%.%.*.@.%.@._ ( ( ( / / / ^ i 6.6.i / s s s ^ ^ ^ ^ s a a a a a a a a a a ^ ",
"/ 6.s 6.i 6./ 6.( ^ ( ( ( ( ( ( ( ( ( ( ( $.$.%.%.%.%.%.%.%.%.@._ _ ( ( ( ( ^ ^ i i i / i / / s ^ ^ ^ ^ s s a s a a a a a ^ a s ",
"6.) 6.s 6.i 6.i ( ( ^ ( ( ( ^ ( ( ( ( ( ( $.$.$.%.@.%.@.%.%.%.%.@.@.( ( / / / ^ i 6./ / / / / s ^ ^ ^ p a a a a s a s a s a +.a ",
"i 6.i 6./ 6.i 6.( ( ( ( ( ( ( ( ( ( ( ( ( ( ( $.@.@.@.@.@.@.@.@.$.@._ ( ( / / ^ i i / / / / / s ^ ^ ^ ^ a a +.a s a a +.s s s s ",
"_ $.@.#.6.) ) ) ( ( ( ( / ( @.( ( ( ( ( ( ( ( ( @.@.@.@.@.@.@.@.@.@.@.( / ) / / / / / / / / s / ^ ^ a ^ ^ +.+.a a +.+.s +.s s s ",
"@.$.$._ / ) ) ~ ( ( ( ( @.@./ ( ( ( ( ( ( / / / ^ ( ( ( ( ( @.( ( ( ( / / s ) / / / / / / / / s ^ @.+.a s a s s s s a s a s a +.",
"$.$.$.$.) _ 6.s ( ( ( ( @./ / @.^ @.( ( ( ( ( ^ ^ @.( ( ( ( ( ( ( ( / ( / ~ / / / / 6.i / / / / ^ +.^ +.+.a a a s +.a s s a s +.",
"$.$.@._ _ _ ) ) ( ( @.( ( @.( ( ( ( ( ( ( ^ ( ( ( @.^ @.^ ( ( ( ^ ^ ( / / / / i 6./ / / / / / s +.^ ^ ^ s +.+.+.+.s +.s +.+.s a ",
"$.$.$.$.$.@._ ( _ _ / @.( ( ( ( ( ( ( ( @.@.^ @.( ( ( ( @.@.@.^ / / ( ^ ( ( ( ( _ / / / / / / / s s +.s s +./ / s s s +.s s s +.",
"$.$.$.$.$.$.@._ / @.( ( ( ( ( ( ( ( ( ( @.^ @.@.( @.( @.@.@.@.^ ^ / ( ^ ( ^ ( ^ / @./ #.) / ) / +.+.s s +.^ ^ / s +.s +.+.s s s ",
"$.$.$.$.$.@._ _ @.@.@.( ( / @.@.( ( ( ( @.@.@.@.( @.@.@.@.@.@.^ ( ( ^ ( ( ^ ( ( / / @./ / ) / / +.s s +.^ +.^ / +.+.s s a +.+.s ",
"$.$.@._ $.@.#.$.@._ @.@.( @.@.@.@.( ( ( @.@.@.%.@.@.( @.@.@.@.@.( ( ( ( ( ( ( ( @.) / / ) / / ) +.+.+.+.s +.+.+.+.s +.+.+.+.a +.",
"_ $.$.$.$.$.@.@._ @.@.@.@.( @.@.@.@.@.@.@.@.@.@.@.@.@.@.@.@.@.^ ( ( @./ ( ( ( ( ( / / ) / / / #.s s #.#.+.^ +.^ +.a +.+.+.^ +.^ ",
"$.$.$.$.$.$.#._ _ @.$.@.@.@.@.@.@.@.@.@.@.@.@.@.@.@.@.@.@.@.@.@.( ( ( @.( ( ( ( ( ) #./ #.#./ / +.+.#.#.+.^ +.+.^ +.+.^ ^ +.+.+.",
"$.$.$.$.$.$._ $.@._ @.@.@.@.@.$.@.@.@.@.@.@.@.@.@.@.@.@.@.@.^ @.( ( ( @.( ( ( ( +./ / ) / #.#./ +.#.s #.+.+.+.+.+.+.+.+.^ +.+.+.",
"$.$.$.$.$.$.$.$.$.@.@.$.$.$.$.$.@.@.@.%.%.@.%.@.@.@.@.@.@.@.@.@.@.( @.@.@.( ( ( @.+.#./ +.#.#./ #.#.+.+.@.+.+.+.+.+.@.@.@.+.^ +.",
"#.6.#.6.$.#.$.$.$.$.$.#.%.$.$.$.@.@.%.$.$.$.$.$.$.@.@.@.@.@.@.@.@.@.@.@.$.@.@.@.@./ @.) / #.) ) ) ) / @.) #.@.+.+.+.+.#.@./ _ / ",
"6.$.$.$.$.6.$.$.$.$.$.$.$.$.$.$.%.%.@.$.%.$.$.$.$.$.$.@.@.@.@.@.@.@.@.$.@.@.@.@.@.#.#.@.#.@.#.#.#.#.#.#.@.@.@._ _ @.+._ @./ / +.",
"#.6.$.$.$.6.$.$.$.$.$.%.%.$.$.$.$.$.%.$.$.$.@.$.$.$.$.@.$.@.@.@.$.@.$.@.@.@.@.@.@.#.+.#.#.#.+.#.#.#.@.@.#.@._ @.+._ +.@./ +._ / ",
"8.#.6.$.$.$.$.$.$.$.$.$.%.$.$.) $.%.$.$.%.$.$.@.$.$.$.$.$.$.@._ @.@.@.@.@.@.@.@.@.@.+.@.@.#./ @.) ) #.@._ @.@.@.@.@.#.@.@._ / _ ",
"%.$.%.$.$.$.&.&.$.$.$.6.$.6.) ) $.$.&.$.' _ _ &.$.$.$.$.@.$._ $.$.$.$.$.%.$.$.$.$.@.( @.$.$.@.( @.#./ _ ( _ @.( ( ( ( ( $.( ( _ ",
"%.$.$.6.&.$.%.$.%.%.$.$.$.$.6.6.*.*.1.2.4.:...W T T Y Y R E Q X.p.s.s.a.f.g.s.p.X.p.s.d.g.h.j.5.w.0.6._ ( ( ( _ ( _ ( _ _ ( @.+.",
"6.$.$.6.$.6.6.$.$._ 6.6.*.-.1.<.{ I K m v v v M K R E Q p.d.l.d.l.x.n.n.m.M.m.x.z.l.l.l.d.p.! ! ;.p.f.3.7.&._ @.$._ _ @.@.@.@._ ",
"$.%.6.$.$.6.$.$.6.6.-.-.| I b d e d d l c c v M K P R E ! p.d.l.l.x.x.x.x.M.m.x.z.x.x.x.z.l.d.p.E E Y Y W :.o.*.&.$.@.@._ _ @.@.",
"6.6.&.&.&.6.6.6.o.O.G x f w w 0 w w w d c h v M J J Y E ! p.p.d.l.l.l.l.x.m.m.l.l.l.x.x.l.d.d.p.p.! E R K A L T O.` *.$.$.@.$._ ",
"6.6.&.&.6.7.2.[ b d 0 6 5 6 8 0 0 w d d d c c M M J P R E E p.p.d.d.d.l.z.m.n.l.d.d.l.l.l.d.d.p.p.! E U P J v c n H | 1.' $.$.$.",
"&.6.&.7.0.| D k 0 4 4 4 5 5 6 8 8 0 w w d h c v m J P P U R ! ! p.p.d.d.z.n.x.d.p.d.l.l.d.d.p.p.! E R U P M v c h c n ~ o.*.&._ ",
"6.&.7.1.I k 6 4 1 1 1 1 4 4 4 6 0 0 w w d d h h c c m m m m J J J J P P ! d.d.E E ! d.p.p.p.! ! ! R P P M v c c g e w d C { w.*.",
"6.*.0.[ d 5 1 , 1 1 1 4 1 4 4 6 6 0 0 0 0 w 0 w 0 0 0 6 4 4 4 6 6 5 6 6 w h c h c M P R P E E E E R P M M v c h h w 0 8 0 m ,.w.",
"6.7. .d 1 > > > > > 1 1 4 4 4 5 4 4 1 > ; - & & % # o X .                 X O # & - > 4 6 w d v M M M m v v h h d w 0 6 4 0 m j.",
"7.2.g 1 > ; > > > 1 1 1 > > - & % + X                         . . .           .     . .     X % - > 4 0 w d d d e w 0 5 4 1 0 I ",
"*.H 4 ; ; ; > ; ; > - & % o .             . . X . . X . . .   . . . . . X X X X X o X X X             o % > 5 0 w 0 6 4 1 1 1 f ",
"0.k > ; ; ; ; - & # o .                                                                       . . . .       X & > 1 4 1 1 1 > 6 ",
"1.e : - - - % + .                                                                                       . .     . + & ; > > > 4 ",
"2.r : - & o .       .                                                                                         . . .   o % ; > 5 ",
"0.C 1 # X                                                                                                           .     + - w ",
"9. .1 O X                                                                                                             . . . # z ",
"9.w.D - o X . .                                                                                                     . . X o 7 ` ",
"9.e.5.Z ; O X X X .                                                                                             . X . X @ 9 ~ 6.",
"*.e.u.f.m 4 % O X X X .                                                                                     X X X X + - q H 0.&.",
"$.6.t.y.c.:.b 6 & + X X . . .                                                                       . . . . X o + : 0 D 4.r.&.*.",
"%.$.6.6.%._ -.<.N 1 % + o X . .   . .                                                         . .   . X o o # = 2 x ..u.r.&.6.&.",
"_ @.#.$._ @.6.$.0.,.D r , & + o X X X . . . . . .   . . .   . .     .   .     . . . . . . . . X X X + % = 3 j ] 2.q.7.8.8.*.*.&.",
"$.$._ $.$.$.#.6.6.t.t.i.>.K r > # + o o X . X X X o X X X X . X . X . X X X X o X X X X . X O + $ = 7 V } 0.r.=.7.7.*.*.*.&.&.7.",
"6.$.$.6.$.6._ $.&.6.9.7.9.r.i.k.X.K f 6 - # + + o o X X X . . . . . . . X X X o O + + @ * 2 t S } 1.*.8.9.9.=.9.e.=.9.=.8.*.*.=.",
"_ _ $._ $.6.$.6.&.6.7.9.9.9.9.9.r.t.v.b.h.s.Q U A b f e 8 5 1 < , , < 2 7 q y B F | -.-.6.7.7.7.8.7.9.9.9.e.e.9.9.9.9.*.*.=.=.e.",
"_ _ _ $.$.$.6.8.6.7.e.9.7.9.9.e.7.9.e.7.7.7.7.7.7.7.7.7.7.7.7.7.9.7.7.7.7.7.7.7.7.7.7.7.6.7.7.7.7.7.9.8.9.=.e.=.=.e.=.e.=.8.*.*.",
"6.6.6.8.8.8.6.6.7.9.e.9.e.e.e.7.e.9.e.7.e.e.7.e.e.7.9.e.9.9.7.7.7.7.9.9.9.7.7.7.7.7.7.7.7.7.7.7.7.9.9.9.9.9.9.9.9.9.9.9.e.*.9.9."
};
