/* XPM */
static char *result[] = {
/* columns rows colors chars-per-pixel */
"64 64 72 1 ",
"  c #74ABD7",
". c #7AACD7",
"X c #76ABD8",
"o c #7BADDA",
"O c #7FB0DC",
"+ c #80AFDB",
"@ c #83B2DD",
"# c #89B6DE",
"$ c #8DB9DF",
"% c #9FBBD4",
"& c #94BADD",
"* c #9BBDDC",
"= c #AAB9C7",
"- c #ADBBCA",
"; c #B1BFCB",
": c #A0BFDB",
"> c #86B6E0",
", c #8AB7E1",
"< c #8CB9E1",
"1 c #95BFE4",
"2 c #9ABFE1",
"3 c #9FC0DE",
"4 c #B5C2CE",
"5 c #B8C4CF",
"6 c #ADC2D3",
"7 c #A4C2DD",
"8 c #ABC5DC",
"9 c #AEC8DF",
"0 c #B4C4D3",
"q c #BAC6D1",
"w c #B6C8D7",
"e c #BDCAD5",
"r c #B1C7DA",
"t c #B4C9DC",
"y c #BCCDDC",
"u c #97C0E5",
"i c #9BC2E6",
"p c #97C2E8",
"a c #9DC4E8",
"s c #A3C5E4",
"d c #ABC7E0",
"f c #A5C8E6",
"g c #AEC9E2",
"h c #A0C7E9",
"j c #B3CBE1",
"k c #BCCEE0",
"l c #BED0E0",
"z c #C2CDD6",
"x c #C3CED9",
"c c #C5D1DB",
"v c #CBD5DD",
"b c #CFD8DF",
"n c #D1D9DF",
"m c #C5D4E4",
"M c #CBD6E0",
"N c #CED9E3",
"B c #CCDAE9",
"V c #D4DCE2",
"C c #D8DFE5",
"Z c #D6DFEA",
"A c #DBE1E6",
"S c #DEE4E9",
"D c #E1E6EA",
"F c #E5E9ED",
"G c #E8ECEF",
"H c #E7ECF0",
"J c #EAEEF1",
"K c #EEF1F3",
"L c #F2F4F6",
"P c #F5F7F8",
"I c #F7F8F9",
"U c #FBFCFC",
/* pixels */
"+++o+o+o+o...oo.Ooo.Oo.O........  XoXXXXXXXXXXXXXXXX            ",
"@o++oO+o+++.ooooooOOOOO.O.......XOXoXXoXXXXXXXXXXXXX  X     X   ",
"@+@O+O+ooo++oo++oO@oOOoOO.O.....XooXXoXoXXXXXXXX XXXXXXX  X     ",
"O@+@+++O+++o++++O@OOOOOOOOO.O..OOooXoXoX.XXXXXXXXXXXXXXX   X    ",
"@++@++@O+o@o+++++>oO@@++O..+....ooooooooXoXX.X.XXXXXXXXXXXXX X  ",
"@@@O@@+O@+++++++o@@@@+++++++.++.Ooooooooo.X.X.X.XXXXXXXXXXXXX X ",
"++@@O@O+@+@++++>>>>>,++++.+.++..OOooooXooXXoooXXXXX+XXXXXX..XXXX",
"@+@+@+@@@@@@@>+>>>>>>@+++++++.++OOooooooooooX.oXX+XX+XX+oX.XXXXX",
"@OOOOOuO@@@@>@>>,#,,,+@++++++oo@OOoOo+oo.oooo.ooXXoXXXoXoXoXXoXX",
"@OOOOOOO@@@><>>@@#+@@+@+#+++@+@oOOoO+#ooooooo.o.ooooooXXXoXXXXX+",
"u.u.@@OO@@#<<><#@@#@@@#++#@++@@>2ghfw::+o+o+o+o.oXoXXXooXoooXXXo",
"u.OO.uOu@@#<<<>>#+#@#@@##+##:wyxvBZZNNmt2++ooo+o++ooooXo+Xoo+Xoo",
".@@@##OO@>##<>,,###+######&8yvVAZFFFDDDZVm:+++.ooX+XoXooooooXX+X",
"O@.uO###>@##<,,######,><&*8cVASHJJJJJJHFFDNm*+++++o+oooooooo+oX+",
"@@@@@#@##>##+###,#,,,,<i8ybADKKLPPLLLKLJFGFZBd#++++ooooooooooo+o",
"@@.u#######@#####,,<<,2jcVAFJKPIPPPPPLLLLJJFDNr#++ooooXooooooo+o",
"u@u.u.@u#####@#$$&<222gxVSFKKIIIIIIUPPPPLLKGFDv:++++oooooooooooo",
".u@uOuu.##@##$*7rymBBZVVAFKKIIIUUUUUUUUPPPLKGDScp+++o+>ooooo>oo>",
"u@u.u@.u@#@#*rxvVSFJLKHDAFKPIIUUUUUUUUUIIPPLKGDVj2++oo++oooooooo",
"@uOu@@u.###3wxnCDJLIIILJJFKLIUUUUUUUUUUUIUPLLJGANj,+++o+>o>oo>o>",
"@uu@u.u.##3yxMSDJPUUUUIIKLLPUUUUUUUUUUUUUIPPLJGSVx:+++++oo>o>oo>",
"##@u@u@u##9zbAHKIUUUUUUIPIIUUUUUUUUUUUUUIIPPLJJFZN4,++++>>o>o>>o",
"u@u@u@u.$dyvVSKPIUUUUUUIUIIUUUUUUUUUUUUUUUPLLJGFAne&++++o>oo>oo>",
"@u@u@u.u<tzVSHKPIUUUUUUUIIIUUUUUUUUUUIUUPPPPPKJDAVe%,+>>o>>>o>oo",
"#$$<@uOu3yvCDKKPIUUUUUUUIIUIUUUUUUUUUUUUUUPKJFDACVxw2@@@>O>+>+++",
"u><<uOu@7yvCSDFKKIIUUUUIUIIUUUUUUUUUUUUUIJFSDDDDDDZVmg2@O>+>>++>",
"<<<<@uuu9bCSSFFGKKPIIUUIIIIUUUUUUUUUUUULGDDDFFGGFFDFCNk7,,>+>o+>",
"<<<<u@ufvSGGJJKJKKPIIUIIIIIUUUUUUUUUUULFSSFGGJJJJJGJFDZvh1>>+>>+",
"<<$$uslDJLKPPIILPLPPPIIIIIIIIILUUUUULJDDFJKKLPPLPLLKKGFSVj2,>>>+",
"<<u39MHJIIUUUUIUIPIIPIIIIPLJFDFGGLLLFDDJKLIUIIIPPIPPKKJFSCx7,>+>",
"uuulAFKPIUUUUUUUUUUUIIIPJSSZZAACACCCDGLLIUUUUUUUUUIIPLKJFSVc:,>>",
">uyVDHLPIUUUUUUUUUUUIIKDSSHHLJLJGFDDKLUUUUUUUUUUUUUUPPLJJDSCv8#>",
"1tNDGLLUUUUUUUUUUUUUULGGKLLLLIILLLJLUUUUUUUUUUUUUUUUIPPKJHDAVy7>",
"7vZHKLUUUUUUUUUUUUUUPKLPILULILILLLLUUUUUUUUUUUUUUUUUIPLLJHHSAcr<",
"tbSJLLLUUUUUUUUUUUUUPPPIIILUUIULLLUUUUUUUUUUUUUUUUUUIPLLJHDSAby7",
"yVDJKLIIUUUUUUUUUUUUIUUIUUUIUUUULPUUUUUUUUUUUUUUUUUIPLLKJHHSAnct",
"cCFJLLLIUUUUUUUUUUUUUIUUUUIUUUUUUUUUUUUUUUUUUUUUUUIPPLKKKGFDAVcw",
"bCDJJLIIUUUUUUUUUUUUIIUUUUUUUUUUUUUUUUUUUUUUUUUUUIPPLLKKGGDDSVve",
"bCDJJLLIIUUUUUUUUUUUUUUUUUUUUUUUUUUUUUUUUUUUUUUIIPPPKLJJGFDSAnxe",
"bCDHJJLLLIUUUUUUUUUUIUUUUUUUUUUUUUUUUUUUUUUUUUIIPPLKKKJJFFDACbve",
"vCSFGJKLLLUUUUUUUUUIUIIIIUUUUUUUUUUUUUUUUUIIIIILPPLKKJGFFDSAVbzw",
"vVSFFJKJJLLUIIUUUUUIIIIIIIIUUUUUUUUUUUUUUUIILPLLKKKKGGGFDDAVCvxq",
"znCDDFGJLLLLLLLIUIIIPPLLLPIIIIIUUUUUUUUIIILLLLLKKJKGGFFDDSCCncew",
"zvVADDFFGGGLLLLLLLLKJLKKLLLLIIIIIIIILLLLLLLLLKKKKJGGFFDDSAVbvzqw",
"ecbCADDDFGGGKGKKKKKGJJJJJKKLLLLLLKLKLLLLKLLKJKJJHHHFFDDAAVnvce5y",
"5evnCASSDDDGGGGGFFFGFFHHFGGJJJJJJJGJJJJJJJGGGGGFFFDDDAAAnnvczq07",
"qqxvnnCCCDDDDDDDDDDDDDFDDFFFGFFFFFFFFFFFFFFFFFFFFDDSSAAnnvczq5ru",
"t0qzcvbnVCnCDCAAACCCCDZCSSSDDDDDDSASASADSSDDASAAAACCVnnvvzeq46iu",
"gt4ezxcvvnnVCnCnnCnnVVVCVACCAAAACVVVVVVCCVCCCVCVCVVnbbvxxz540711",
"aj04qezcccvvvvvnvvvvvnvvnnnnnnnnbbbvbvvbbbbbbbbbbbvvvxzzz4408i&1",
"as80;qqezzzzzzzxzzzzzzzezzzzczxxzzezeeqqzqzzzzzzxxzzzeeq;4663uuu",
"auagr0;q5qqq55z55eq5555555555554q5555544555555545qq5qq44;0iuuu$u",
"uaiidj0;;;;;54444444-4-444--4=6-44;;44=4;;;;64=44504;;;;8uuuuuuu",
"a2i21asdjwq0;;;;;;---4=-==--==============;==6=6---;0wsauuuuuuuu",
"auaiai2iiia2a2sssf7ffffs33u<uupuuu3uuuuuuu3uuuuu111u111uuuuuuu$u",
"a2ii2aaiii2a22s2issi7ffs3u3u3upuuuu3uuuuuuuuuuuu1111111puuuuuuuu",
"saiaiaaaih1aa2aa7ia7ifaiiiiiiuiuuuuuiiuuiuuuuuuua111a11huuppiuu3",
"aaaaaaaahihaaaaaiaiaiaiiiiiiiiiiuuippuuaiuu3uuuu11pa1h11puppuu<u",
"aaaaaaaai1haaa2aiiaiaiiiiiiiiiiupuuiipipiuuuuui31p1aaa11auupuuuu",
"aaahaaahhhh11a2aaiiaiaiiiiiiiiiippiipipiuiuiuuiupp1aa1h1uapuu&uu",
"aaaaaaaaahhahaaaaaaiaaiaiiihiiiiiiiiiiiiiiiiuauua1aah1hh11a1uuuu",
"hhahhahaaaaaaaaaaaaaaiaiiiiihiiiiiiiiipiiii3auaaaaa11h11ha11uuuu",
"hhhhahahfhaaaaaaaaaaii3aiiihuihh3uhuuuiiiiiiiippapaa1h1h1haa1ia1",
"hhahhhhhhaasaaaaaahahahihiihhhiiiiiihhihiiiiiiaaappah1h1h11aai1i"
};
