/* XPM */
static char *result[] = {
/* columns rows colors chars-per-pixel */
"32 32 6 1 ",
"  c #4F170C",
". c #4F230F",
"X c #583B1A",
"o c #6E4527",
"O c #6E4E2A",
"+ c #9E6338",
/* pixels */
".....XOOOOOOO ....XXXXXXOOO ..XX",
"....XOOOOOOOO ..XXXXXXOOOOO .OXX",
".XXOOOoooooOO .XOOOOOOOOOOO OOOX",
"XOOOOOoooOOOO OOOOOOOoOOOOO oooO",
"OOOOoooOOO+O+ OOOoooooOOOO+ OOOO",
"OOOOOOOO+++++ OOoooooOOO+++ O++O",
"OOOOOOO++++++ OOoOOOOO+++++ O+++",
"                                ",
"OOXXXXX.. ....XXXXXXO ...XOOXXX.",
"OOOXXXOX. ...XOOOOOOO ..XOOOOOOX",
"OOOOOOOOX .XOOOOOooOO XOOOOOOOOO",
"OOOooOoOO OOOOOOOoooo OOOooooooO",
"+oOOooooO OOO+oOOoooO OOOOooooOO",
"++ooOOOOO OO+++oooOOO OOO+oOOOOO",
"+++++OOOO ++++++++OOO OO++++OOOO",
"                                ",
"O.....XXXXXX... ...XXXOOO. ..XXX",
"OOOXXXOOOOXXX.. ..XXOOOOO. .XXOO",
"OOOOOOooOOOOOX. XXOOOOOOOX XXOOO",
"ooooooooooOOOOX XOOOoooOOO XOOoo",
"OoooOOooooOOOOO XOOooooO++ XOOoO",
"O+oOOOOoo+++OOO OOOooOo+++ OO+OO",
"+++++++++++++OO OOOOOO++++ OO+++",
"                                ",
"OOOXXX... ..XXXXX... ...XOOOXX..",
"OoOOOOX.. .XXXXOOX.. ..XXOOOOXX.",
"OooOOOOX. XXXOOOOOX. .XOOOOOOOOO",
"ooooooOX. XOooOOOOOX XXOooooooOO",
"ooooooOOX OOoooooOOO OOOOOoooooO",
"OooooOOOO OOOooOOOOO OO++OOooooO",
"++oo+OOOO OO+oO+OOOO O+++++OOooO",
"++++++++O OO+++++OOO ++++++++OOO"
};
